#!OML:ASF X:\für Bonn\!DataBase\2005_08_11_Bastian_Final\c3d\Bastian.ASF
:FULLY-SPECIFIED
:DEGREES
579
root 0.563451 1.18173 20.395 -638.296 -0.748824 -179.036
lowerback 7.69353 -1.2032 3.97159
upperback 7.26605 -2.05646 1.73512
thorax 3.17888 -1.20047 -0.344784
lowerneck -19.6493 -4.78886 -4.80143
upperneck 3.37599 -5.85097 4.60057
head 4.39136 -2.76878 1.64873
rclavicle 7.55382e-015 2.08724e-015
rhumerus -58.8251 50.5967 -112.612
rradius 25.12
rwrist -10.2109
rhand -11.6318 -1.58011
rfingers 7.12502
rthumb 14.4118 -31.0597
lclavicle 7.55382e-015 2.08724e-015
lhumerus -40.7617 -39.5925 105.153
lradius 16.6838
lwrist 21.8662
lhand -9.37564 -3.42896
lfingers 7.12502
lthumb 16.5848 25.8824
rfemur -1.47924 6.56524 22.5367
rtibia 31.5793
rfoot -14.0078 -24.7229
rtoes 1.03715
lfemur 2.78194 3.10607 -15.4336
ltibia 21.394
lfoot -2.22748 9.52361
ltoes -4.73866
580
root 0.563249 1.18151 20.3952 -638.238 -0.729203 -179.051
lowerback 7.63004 -1.19419 4.00612
upperback 7.2458 -2.04121 1.72935
thorax 3.19201 -1.18896 -0.372236
lowerneck -19.8446 -4.75622 -4.71754
upperneck 3.36862 -5.82311 4.58419
head 4.41416 -2.75471 1.62984
rclavicle -2.3059e-014 3.3694e-014
rhumerus -58.78 50.5336 -112.573
rradius 25.0958
rwrist -10.1799
rhand -11.6262 -1.54492
rfingers 7.12502
rthumb 14.4172 -31.0242
lclavicle -2.3059e-014 3.3694e-014
lhumerus -40.8049 -39.6693 105.192
lradius 16.6692
lwrist 21.9299
lhand -9.52372 -3.22215
lfingers 7.12502
lthumb 16.4423 26.101
rfemur -1.54191 6.54754 22.5447
rtibia 31.5779
rfoot -14.0067 -24.7035
rtoes 1.04697
lfemur 2.71706 3.10961 -15.4165
ltibia 21.3971
lfoot -2.22951 9.53682
ltoes -4.69098
581
root 0.563387 1.18096 20.3963 -638.19 -0.728379 -179.052
lowerback 7.57336 -1.19952 3.99802
upperback 7.23297 -2.0488 1.73018
thorax 3.20966 -1.19155 -0.367946
lowerneck -20.0521 -4.71027 -4.668
upperneck 3.37512 -5.76924 4.57508
head 4.44316 -2.72739 1.62095
rclavicle 3.97569e-015 3.37934e-015
rhumerus -58.8434 50.5699 -112.636
rradius 25.109
rwrist -10.1779
rhand -11.6493 -1.5435
rfingers 7.12502
rthumb 14.3949 -31.0243
lclavicle 3.97569e-015 3.37934e-015
lhumerus -40.8497 -39.7432 105.251
lradius 16.6621
lwrist 21.9883
lhand -9.69707 -3.03173
lfingers 7.12502
lthumb 16.2753 26.3052
rfemur -1.59741 6.55927 22.5424
rtibia 31.5752
rfoot -13.9868 -24.7385
rtoes 0.995891
lfemur 2.65749 3.10897 -15.4189
ltibia 21.4038
lfoot -2.22838 9.56555
ltoes -4.62555
582
root 0.563178 1.1808 20.3972 -638.142 -0.734094 -179.05
lowerback 7.51961 -1.20038 3.99531
upperback 7.21402 -2.04876 1.72909
thorax 3.21928 -1.18974 -0.368795
lowerneck -20.2113 -4.6783 -4.64123
upperneck 3.34204 -5.73246 4.5881
head 4.45462 -2.70854 1.62211
rclavicle 1.35174e-014 -2.5842e-015
rhumerus -58.8974 50.5841 -112.673
rradius 25.1257
rwrist -10.2011
rhand -11.6493 -1.545
rfingers 7.12502
rthumb 14.3949 -31.0258
lclavicle 1.35174e-014 -2.5842e-015
lhumerus -40.8214 -39.6988 105.223
lradius 16.6221
lwrist 21.9823
lhand -9.78078 -2.89463
lfingers 7.12502
lthumb 16.1947 26.4489
rfemur -1.65033 6.53557 22.5219
rtibia 31.5685
rfoot -13.9631 -24.7368
rtoes 0.833736
lfemur 2.59993 3.06887 -15.4343
ltibia 21.4155
lfoot -2.27934 9.59217
ltoes -4.45902
583
root 0.563442 1.18013 20.3984 -638.081 -0.70829 -179.045
lowerback 7.46142 -1.2053 4.0119
upperback 7.18789 -2.05383 1.74461
thorax 3.22385 -1.19033 -0.362988
lowerneck -20.404 -4.65709 -4.65183
upperneck 3.37185 -5.70068 4.61889
head 4.49266 -2.68999 1.63309
rclavicle -5.1684e-015 1.49089e-015
rhumerus -58.9338 50.588 -112.69
rradius 25.129
rwrist -10.2004
rhand -11.6437 -1.5447
rfingers 7.12502
rthumb 14.4003 -31.0252
lclavicle -5.1684e-015 1.49089e-015
lhumerus -40.7893 -39.6038 105.162
lradius 16.6039
lwrist 21.9249
lhand -9.87973 -2.75327
lfingers 7.12502
lthumb 16.0995 26.598
rfemur -1.72066 6.5485 22.5477
rtibia 31.5667
rfoot -13.9618 -24.7748
rtoes 0.790256
lfemur 2.52491 3.07472 -15.4065
ltibia 21.4172
lfoot -2.28796 9.61499
ltoes -4.31371
584
root 0.563435 1.17945 20.3994 -638.034 -0.712214 -179.031
lowerback 7.41225 -1.21113 3.99818
upperback 7.17554 -2.06258 1.75267
thorax 3.23827 -1.19423 -0.347862
lowerneck -20.5841 -4.62101 -4.66292
upperneck 3.37162 -5.65035 4.65462
head 4.51868 -2.66274 1.64818
rclavicle -2.0276e-014 4.87022e-015
rhumerus -58.9749 50.6215 -112.719
rradius 25.1382
rwrist -10.2709
rhand -11.6605 -1.52278
rfingers 7.12502
rthumb 14.3842 -31.0044
lclavicle -2.0276e-014 4.87022e-015
lhumerus -40.7687 -39.597 105.157
lradius 16.5841
lwrist 22.0112
lhand -9.97007 -2.65931
lfingers 7.12502
lthumb 16.0125 26.699
rfemur -1.7736 6.52428 22.5311
rtibia 31.5637
rfoot -13.9453 -24.8056
rtoes 0.721477
lfemur 2.4648 3.08059 -15.4133
ltibia 21.4233
lfoot -2.27489 9.6046
ltoes -4.32258
585
root 0.563916 1.1796 20.4002 -637.987 -0.71584 -179.04
lowerback 7.34573 -1.20791 3.97687
upperback 7.16995 -2.06082 1.76057
thorax 3.26995 -1.19286 -0.32983
lowerneck -20.7226 -4.58299 -4.63002
upperneck 3.31997 -5.60597 4.64882
head 4.5199 -2.6417 1.64395
rclavicle -7.95139e-016 -1.50082e-014
rhumerus -59.0258 50.6685 -112.755
rradius 25.1624
rwrist -10.3122
rhand -11.6607 -1.52897
rfingers 7.12502
rthumb 14.384 -31.0106
lclavicle -7.95139e-016 -1.50082e-014
lhumerus -40.6979 -39.5324 105.08
lradius 16.5344
lwrist 21.9888
lhand -10.0281 -2.55695
lfingers 7.12502
lthumb 15.9566 26.8058
rfemur -1.824 6.53486 22.5244
rtibia 31.5608
rfoot -13.9374 -24.8243
rtoes 0.574571
lfemur 2.41197 3.09296 -15.4168
ltibia 21.4315
lfoot -2.27996 9.62014
ltoes -4.39599
586
root 0.563821 1.17894 20.4014 -637.925 -0.694722 -179.042
lowerback 7.29899 -1.21227 3.99217
upperback 7.13156 -2.06289 1.77448
thorax 3.25531 -1.19177 -0.324518
lowerneck -20.8435 -4.54675 -4.63836
upperneck 3.31736 -5.55767 4.68668
head 4.53642 -2.61549 1.6602
rclavicle -9.14409e-015 7.25564e-015
rhumerus -59.1924 50.7324 -112.907
rradius 25.1883
rwrist -10.4062
rhand -11.6816 -1.54317
rfingers 7.12502
rthumb 14.3638 -31.0262
lclavicle -9.14409e-015 7.25564e-015
lhumerus -40.6515 -39.3352 104.952
lradius 16.5318
lwrist 21.8821
lhand -10.0677 -2.4893
lfingers 7.12502
lthumb 15.9185 26.8765
rfemur -1.89746 6.52732 22.537
rtibia 31.5598
rfoot -13.882 -24.8632
rtoes 0.353461
lfemur 2.3345 3.16971 -15.3806
ltibia 21.4349
lfoot -2.2293 9.56195
ltoes -4.44279
587
root 0.564234 1.17896 20.4023 -637.879 -0.698738 -179.054
lowerback 7.24748 -1.20778 3.98484
upperback 7.11408 -2.05607 1.77555
thorax 3.2657 -1.18691 -0.320841
lowerneck -20.9467 -4.52135 -4.65553
upperneck 3.28957 -5.52221 4.72421
head 4.54309 -2.5964 1.67696
rclavicle -3.18055e-015 -3.75703e-014
rhumerus -59.2505 50.7443 -112.942
rradius 25.2102
rwrist -10.4264
rhand -11.6816 -1.5436
rfingers 7.12502
rthumb 14.3638 -31.0267
lclavicle -3.18055e-015 -3.75703e-014
lhumerus -40.6007 -39.2576 104.888
lradius 16.4855
lwrist 21.8746
lhand -10.127 -2.43892
lfingers 7.12502
lthumb 15.8614 26.9314
rfemur -1.94978 6.5341 22.5273
rtibia 31.5574
rfoot -13.8684 -24.8763
rtoes 0.316681
lfemur 2.28191 3.17105 -15.3886
ltibia 21.4429
lfoot -2.24096 9.59036
ltoes -4.39098
588
root 0.564228 1.17897 20.4033 -637.833 -0.701174 -179.055
lowerback 7.19465 -1.21002 3.96183
upperback 7.10202 -2.06083 1.78898
thorax 3.28304 -1.18933 -0.295311
lowerneck -21.0849 -4.48307 -4.67159
upperneck 3.27281 -5.46871 4.75915
head 4.55744 -2.56818 1.69401
rclavicle 4.25399e-014 -6.91771e-014
rhumerus -59.2867 50.778 -112.96
rradius 25.2204
rwrist -10.4421
rhand -11.6818 -1.54767
rfingers 7.12502
rthumb 14.3636 -31.0307
lclavicle 4.25399e-014 -6.91771e-014
lhumerus -40.5546 -39.1744 104.817
lradius 16.477
lwrist 21.8929
lhand -10.147 -2.39937
lfingers 7.12502
lthumb 15.8421 26.9725
rfemur -2.0018 6.51969 22.5144
rtibia 31.5544
rfoot -13.8386 -24.9045
rtoes 0.176326
lfemur 2.22563 3.17329 -15.3948
ltibia 21.4525
lfoot -2.26259 9.60425
ltoes -4.21316
589
root 0.564235 1.17843 20.4044 -637.769 -0.678583 -179.046
lowerback 7.13645 -1.21161 3.98418
upperback 7.07547 -2.06035 1.79278
thorax 3.28683 -1.18632 -0.305078
lowerneck -21.176 -4.44512 -4.63907
upperneck 3.24887 -5.4263 4.76253
head 4.56074 -2.54712 1.69318
rclavicle 1.31198e-014 -1.49089e-015
rhumerus -59.3536 50.7864 -113.017
rradius 25.2329
rwrist -10.446
rhand -11.7045 -1.5422
rfingers 7.12502
rthumb 14.3417 -31.0268
lclavicle 1.31198e-014 -1.49089e-015
lhumerus -40.501 -39.1017 104.722
lradius 16.4265
lwrist 21.8891
lhand -10.1075 -2.41657
lfingers 7.12502
lthumb 15.8801 26.9523
rfemur -2.07355 6.52035 22.5323
rtibia 31.5533
rfoot -13.8354 -24.9506
rtoes 0.0209428
lfemur 2.14763 3.17643 -15.3727
ltibia 21.4576
lfoot -2.24933 9.59854
ltoes -4.21818
590
root 0.564379 1.1782 20.4051 -637.734 -0.678933 -179.035
lowerback 7.09376 -1.21966 3.97469
upperback 7.0678 -2.07206 1.79344
thorax 3.3022 -1.19157 -0.299742
lowerneck -21.2542 -4.40471 -4.63389
upperneck 3.20318 -5.37795 4.79998
head 4.55685 -2.522 1.70839
rclavicle 2.42517e-014 -6.03311e-014
rhumerus -59.3546 50.8009 -113.021
rradius 25.2272
rwrist -10.4299
rhand -11.6964 -1.51939
rfingers 7.12502
rthumb 14.3495 -31.0035
lclavicle 2.42517e-014 -6.03311e-014
lhumerus -40.3997 -38.9411 104.573
lradius 16.3771
lwrist 21.785
lhand -10.0907 -2.46561
lfingers 7.12502
lthumb 15.8963 26.9019
rfemur -2.11235 6.52258 22.5288
rtibia 31.5502
rfoot -13.8305 -24.9858
rtoes -0.022344
lfemur 2.10009 3.18167 -15.3738
ltibia 21.4656
lfoot -2.24392 9.60434
ltoes -4.29662
591
root 0.564369 1.1782 20.4059 -637.687 -0.68138 -179.036
lowerback 7.04639 -1.21667 3.95948
upperback 7.05523 -2.06908 1.80714
thorax 3.3161 -1.18983 -0.278438
lowerneck -21.3226 -4.37535 -4.66933
upperneck 3.14971 -5.33287 4.83448
head 4.55003 -2.49922 1.72896
rclavicle -5.56597e-015 7.35503e-015
rhumerus -59.3655 50.8124 -113.008
rradius 25.2303
rwrist -10.4353
rhand -11.699 -1.51698
rfingers 7.12502
rthumb 14.347 -31.0012
lclavicle -5.56597e-015 7.35503e-015
lhumerus -40.3707 -38.9337 104.557
lradius 16.3535
lwrist 21.8991
lhand -10.0629 -2.5216
lfingers 7.12502
lthumb 15.9231 26.8438
rfemur -2.16312 6.52004 22.5188
rtibia 31.5455
rfoot -13.8192 -25.0172
rtoes -0.117786
lfemur 2.04385 3.18388 -15.38
ltibia 21.475
lfoot -2.24484 9.60684
ltoes -4.29661
